# xmcd
#
# Track frame offsets: 
#        150
#        15839
#        28260
#        36115
#        45117
#        60429
#        69943
#        81920
#        96291
#        104962
#        117224
#        129025
#        137171
#        153268
#        167409
#        179072
#        196445
#
# Disc length: 2800 seconds
#
# Revision: 0
# Processed by: cddbd v1.5.2PL0 Copyright (c) Steve Scherf et al.
# Submitted via: ExactAudioCopy v1.0b1
#
DISCID=d80aee11
DTITLE=klondike5 string band - stone river
DYEAR=2011
DGENRE=Bluegrass
TTITLE0=old joe clark
TTITLE1=gravel yard
TTITLE2=lil' liza jane
TTITLE3=old home place
TTITLE4=way downtown
TTITLE5=walking in my sleep
TTITLE6=darlin' in the snow
TTITLE7=cluck ol' hen
TTITLE8=i'll come back
TTITLE9=call your daughter
TTITLE10=picked up a hammer
TTITLE11=angelina baker
TTITLE12=cold heart
TTITLE13=cuckoo
TTITLE14=harvard square
TTITLE15=further down the line
TTITLE16=ain't gonna work
EXTD=
EXTT0=
EXTT1=
EXTT2=
EXTT3=
EXTT4=
EXTT5=
EXTT6=
EXTT7=
EXTT8=
EXTT9=
EXTT10=
EXTT11=
EXTT12=
EXTT13=
EXTT14=
EXTT15=
EXTT16=
PLAYORDER=
